<svg xmlns="http://www.w3.org/2000/svg">
<!--faceBook-->
    <symbol
            fill="#ffffff"
            xmlns="http://www.w3.org/2000/svg"
            viewBox="0 0 50 50"
            id="faceBook">
        <path fill="#ffffff" stroke="#ffffff" stroke-linecap="round" stroke-miterlimit="10" stroke-width="2" d="M26,45V29h-3v-5h3v-3c0-4,2-7,6-7c2.903,0,5,1,5,1v4h-2c-2.145,0-3,0.504-3,2v3h5l-1,5h-4v16"></path>
        <path fill="#ffffff" stroke="#ffffff" stroke-linecap="round" stroke-linejoin="round" stroke-miterlimit="10" stroke-width="2" d="M9,45h32c2.209,0,4-1.791,4-4V9c0-2.209-1.791-4-4-4H9C6.791,5,5,6.791,5,9v32C5,43.209,6.791,45,9,45z"></path>
    </symbol>

<!--    mobile -->
    <symbol
            fill="#ffffff"
            xmlns="http://www.w3.org/2000/svg"
            viewBox="0 0 50 50"
            id="mobile">
        <path fill="none" stroke="#ffffff" stroke-miterlimit="10" stroke-width="2" d="M36,44.99H14c-4.971,0-9-4.029-9-9v-22 c0-4.971,4.029-9,9-9h22c4.971,0,9,4.029,9,9v22C45,40.961,40.971,44.99,36,44.99z"></path>
        <path fill="none" stroke="#ffffff" stroke-miterlimit="10" stroke-width="2" d="M34.556,37.001c0.803,0,3.564-1.443,3.41-5.007 c-0.027-0.628-0.38-1.204-0.923-1.552c-0.618-0.396-1.577-1.011-2.828-1.811c-1.141-0.729-2.615-0.781-3.805-0.129l-1.083,0.464 c-0.564,0.396-1.287,0.475-1.923,0.209c-0.99-0.414-2.511-1.216-3.937-2.642c-1.426-1.426-2.228-2.947-2.642-3.937 c-0.266-0.636-0.187-1.359,0.209-1.923l0.464-1.083c0.652-1.19,0.601-2.664-0.129-3.805c-0.8-1.251-1.415-2.21-1.811-2.828 c-0.348-0.543-0.924-0.896-1.552-0.923c-3.564-0.154-5.007,2.607-5.007,3.41c0,0.556-0.761,7.239,6.778,14.778 S34,37.001,34.556,37.001z"></path>
    </symbol>
<!-- mail -->

    <symbol
            fill="#ffffff"
            xmlns="http://www.w3.org/2000/svg"
            viewBox="0 0 50 50" id="mail">
        <path fill="none" stroke="#ffffff" stroke-miterlimit="10" stroke-width="2" d="M36,45H14c-4.971,0-9-4.029-9-9V14 c0-4.971,4.029-9,9-9h22c4.971,0,9,4.029,9,9v22C45,40.971,40.971,45,36,45z"></path>
        <path fill="none" stroke="#ffffff" stroke-miterlimit="10" stroke-width="2" d="M37,34H13c-1.105,0-2-0.895-2-2V18 c0-1.105,0.895-2,2-2h24c1.105,0,2,0.895,2,2v14C39,33.105,38.105,34,37,34z"></path>
        <path fill="none" stroke="#ffffff" stroke-miterlimit="10" stroke-width="2" d="M38,17l-9.616,9.601 c-1.875,1.872-4.912,1.871-6.786-0.003L12,17"></path>
        <line x1="20" x2="12" y1="25" y2="33" fill="none" stroke="#ffffff" stroke-miterlimit="10" stroke-width="2"></line>
        <line x1="38" x2="29.988" y1="33" y2="25" fill="none" stroke="#ffffff" stroke-miterlimit="10" stroke-width="2"></line>
    </symbol>
<!-- skype -->

    <symbol
            fill="#ffffff"
            xmlns="http://www.w3.org/2000/svg"
            viewBox="0 0 50 50"
            id="skype">
        <path fill="none" d="M0 0H50V50H0z"></path>
        <path fill="none" stroke="#ffffff" stroke-linecap="round" stroke-linejoin="round" stroke-miterlimit="10" stroke-width="2" d="M47.619,30.098c0.351-1.563,0.533-3.186,0.533-4.848c0-12.464-10.251-22.572-22.896-22.572c-1.334,0-2.642,0.114-3.918,0.33C19.295,1.738,16.876,1,14.277,1C6.946,1,1,6.862,1,14.088c0,2.419,0.665,4.68,1.827,6.625c-0.303,1.468-0.464,2.984-0.464,4.536c0,12.472,10.248,22.576,22.893,22.576c1.433,0,2.832-0.129,4.196-0.378C31.315,48.438,33.457,49,35.726,49C43.058,49,49,43.142,49,35.912C49,33.823,48.507,31.849,47.619,30.098z M36.998,36.04c-1.06,1.479-2.624,2.65-4.652,3.479c-2.006,0.822-4.415,1.24-7.152,1.24c-3.289,0-6.048-0.569-8.197-1.696c-1.539-0.819-2.81-1.931-3.768-3.3c-0.976-1.38-1.469-2.753-1.469-4.078c0-0.826,0.322-1.545,0.954-2.132c0.629-0.58,1.433-0.873,2.39-0.873c0.786,0,1.465,0.231,2.017,0.69c0.53,0.44,0.979,1.094,1.341,1.934c0.406,0.918,0.848,1.688,1.319,2.301c0.446,0.583,1.093,1.079,1.919,1.461c0.83,0.389,1.948,0.584,3.326,0.584c1.893,0,3.443-0.397,4.609-1.182c1.14-0.767,1.696-1.692,1.696-2.819c0-0.892-0.289-1.593-0.881-2.14c-0.625-0.576-1.451-1.024-2.445-1.329c-1.042-0.319-2.456-0.664-4.203-1.028c-2.376-0.503-4.393-1.097-5.997-1.769c-1.645-0.69-2.967-1.644-3.936-2.837c-0.983-1.215-1.48-2.734-1.48-4.525c0-1.707,0.523-3.245,1.557-4.569c1.02-1.314,2.518-2.342,4.444-3.043c1.897-0.694,4.159-1.042,6.714-1.042c2.046,0,3.845,0.231,5.347,0.694c1.506,0.462,2.781,1.086,3.779,1.857c1.009,0.778,1.754,1.607,2.226,2.47c0.475,0.87,0.716,1.736,0.716,2.573c0,0.807-0.314,1.541-0.939,2.18c-0.625,0.642-1.418,0.965-2.35,0.965c-0.848,0-1.513-0.202-1.974-0.602c-0.428-0.374-0.873-0.958-1.367-1.795c-0.57-1.072-1.261-1.916-2.054-2.507c-0.768-0.576-2.058-0.87-3.823-0.87c-1.641,0-2.975,0.323-3.965,0.965c-0.957,0.617-1.422,1.325-1.422,2.165c0,0.514,0.15,0.943,0.457,1.314c0.329,0.389,0.786,0.734,1.367,1.02c0.603,0.297,1.221,0.536,1.842,0.705c0.636,0.173,1.703,0.433,3.169,0.767c1.853,0.393,3.556,0.829,5.062,1.303c1.524,0.484,2.843,1.075,3.918,1.765c1.093,0.705,1.962,1.608,2.58,2.687c0.618,1.083,0.928,2.422,0.928,3.979C38.599,32.862,38.062,34.557,36.998,36.04z"></path>
    </symbol>
<!--  telegram  -->

    <symbol
            fill="#ffffff"
            xmlns="http://www.w3.org/2000/svg"
            viewBox="0 0 50 50"
            id="telegram">
        <path fill="none" stroke="#ffffff" stroke-miterlimit="10" stroke-width="2" d="M43.361,7.242	C42.077,7.758,5.633,23.389,5.633,23.389s-1.765,0.614-1.625,1.748s1.58,1.653,1.58,1.653l9.38,3.212c0,0,2.832,9.448,3.39,11.241	c0.558,1.796,1.004,1.838,1.004,1.838c0.518,0.23,0.992-0.137,0.992-0.137l6.061-5.622l9.448,7.369	c2.554,1.134,3.483-1.228,3.483-1.228l6.509-33.925C46.431,6.913,44.717,6.699,43.361,7.242z"></path>
        <polyline fill="none" stroke="#ffffff" stroke-linecap="round" stroke-linejoin="round" stroke-miterlimit="10" stroke-width="2" points="15,30 39,14 22,34"></polyline>
        <polyline fill="none" stroke="#ffffff" stroke-linecap="round" stroke-linejoin="round" stroke-miterlimit="10" stroke-width="2" points="20,43 22,34 26,37"></polyline>
    </symbol>
<!--  linkedIn  -->
    <symbol
            fill="#ffffff"
            xmlns="http://www.w3.org/2000/svg"
            viewBox="0 0 50 50"
            id="linkedin">
        <path fill="none" stroke="#ffffff" stroke-linecap="round" stroke-linejoin="round" stroke-miterlimit="10" stroke-width="2" d="M9,45h32c2.209,0,4-1.791,4-4V9c0-2.209-1.791-4-4-4H9C6.791,5,5,6.791,5,9v32C5,43.209,6.791,45,9,45z"></path>
        <path fill="none" stroke="#ffffff" stroke-linecap="round" stroke-linejoin="round" stroke-miterlimit="10" stroke-width="2" d="M11 20L17 20 17 33.135 17 39 11 39z"></path>
        <path fill="none" stroke="#ffffff" stroke-linecap="round" stroke-linejoin="round" stroke-miterlimit="10" stroke-width="1.976" d="M14,17L14,17c-1.8,0-3-1.133-3-2.533S12.2,12,14,12s2.925,1.067,3,2.467C17,15.867,15.875,17,14,17z"></path>
        <path fill="none" stroke="#ffffff" stroke-linecap="round" stroke-linejoin="round" stroke-miterlimit="10" stroke-width="2" d="M39,39h-6c0,0,0-9.257,0-10c0-2-1-4-3.5-4.043C27.022,24.913,26,27,26,29c0,0.909,0,10,0,10h-6V20h6v2.561c0,0,1.93-2.561,5.813-2.561C35.778,20,39,22.726,39,28.261V39z"></path>
    </symbol>
<!--  github   -->

    <symbol
            fill="#ffffff"
            xmlns="http://www.w3.org/2000/svg"
            viewBox="0 0 24 24"
            id="github">
        <path d="M10.9,2.1c-4.6,0.5-8.3,4.2-8.8,8.7c-0.5,4.7,2.2,8.9,6.3,10.5C8.7,21.4,9,21.2,9,20.8v-1.6c0,0-0.4,0.1-0.9,0.1c-1.4,0-2-1.2-2.1-1.9c-0.1-0.4-0.3-0.7-0.6-1C5.1,16.3,5,16.3,5,16.2C5,16,5.3,16,5.4,16c0.6,0,1.1,0.7,1.3,1c0.5,0.8,1.1,1,1.4,1c0.4,0,0.7-0.1,0.9-0.2c0.1-0.7,0.4-1.4,1-1.8c-2.3-0.5-4-1.8-4-4c0-1.1,0.5-2.2,1.2-3C7.1,8.8,7,8.3,7,7.6C7,7.2,7,6.6,7.3,6c0,0,1.4,0,2.8,1.3C10.6,7.1,11.3,7,12,7s1.4,0.1,2,0.3C15.3,6,16.8,6,16.8,6C17,6.6,17,7.2,17,7.6c0,0.8-0.1,1.2-0.2,1.4c0.7,0.8,1.2,1.8,1.2,3c0,2.2-1.7,3.5-4,4c0.6,0.5,1,1.4,1,2.3v2.6c0,0.3,0.3,0.6,0.7,0.5c3.7-1.5,6.3-5.1,6.3-9.3C22,6.1,16.9,1.4,10.9,2.1z"></path>
    </symbol>

<!--  chevron down  -->
    <symbol
            xmlns="http://www.w3.org/2000/svg"
            fill="#ffffff"
            viewBox="0 0 18 18"
            id="chevron">
        <path d="M0 0h24v24H0z" fill="none"></path>
        <path d="M16.59 8.59L12 13.17 7.41 8.59 6 10l6 6 6-6z"></path>
    </symbol>
</svg>
